<svg width="170" height="170" viewBox="0 0 170 170" fill="none" xmlns="http://www.w3.org/2000/svg">
<path d="M159.174 70.4172C158.967 68.2537 157.254 66.5411 155.09 66.3341C153.879 66.2184 125.21 63.6891 108.516 80.3834C104.896 84.0032 102.181 88.1862 100.149 92.5298C96.8004 78.8216 90.8464 67.4488 82.6711 59.2736C72.5953 49.1979 57.6614 42.4942 39.4849 39.8879C25.9603 37.9483 15.4289 38.9173 14.9873 38.96C12.8238 39.1668 11.1111 40.8795 10.9042 43.043C10.8618 43.4846 9.89293 54.0157 11.8322 67.5405C14.4385 85.7172 21.1418 100.651 31.2179 110.726C41.2937 120.802 56.2274 127.506 74.4042 130.112C81.098 131.072 87.0573 131.32 91.4241 131.32C95.3806 131.319 98.0256 131.116 98.7262 131.056C99.3252 131.107 101.148 131.242 103.802 131.242C113.087 131.242 132.52 129.596 145.124 116.991C161.818 100.297 159.289 71.6298 159.174 70.4172Z" fill="#30CB65"/>
<path d="M131.437 95.4802C129.667 93.7098 126.795 93.7098 125.023 95.4802L100.136 120.369L61.5614 81.7932C59.7906 80.0228 56.9191 80.0228 55.1477 81.7932C53.3764 83.5643 53.3767 86.4357 55.1477 88.2074L96.674 129.733C97.5592 130.618 98.72 131.061 99.8801 131.061C99.9651 131.061 100.051 131.055 100.136 131.049C100.221 131.054 100.306 131.061 100.391 131.061C101.552 131.061 102.713 130.618 103.598 129.733L131.437 101.894C133.209 100.123 133.208 97.2513 131.437 95.4802Z" fill="#97E5B2"/>
<path d="M155.09 66.3339C153.878 66.2182 125.21 63.6889 108.516 80.3834C104.895 84.0032 102.181 88.1862 100.148 92.5298C100.103 92.3492 100.057 92.1705 100.012 91.9906V131.144C100.921 131.194 102.21 131.242 103.802 131.242C113.086 131.242 132.518 129.596 145.123 116.991C161.817 100.297 159.289 71.6291 159.172 70.4165C158.966 68.2537 157.253 66.5404 155.09 66.3339Z" fill="#97E5B2"/>
<path d="M125.025 95.4809L100.137 120.369L100.013 120.245V131.055C100.055 131.053 100.096 131.051 100.137 131.049C100.222 131.054 100.308 131.061 100.393 131.061C101.553 131.061 102.713 130.618 103.599 129.733L131.437 101.894C133.209 100.123 133.209 97.252 131.437 95.4802C129.667 93.7098 126.795 93.7098 125.025 95.4809Z" fill="#5DC378"/>
</svg>
