<svg width="868" height="170" viewBox="0 0 868 170" fill="none" xmlns="http://www.w3.org/2000/svg">
<path d="M839.96 75.2065C839.96 76.5149 840.676 77.5118 842.109 78.1972C843.605 78.8203 845.941 79.4745 849.119 80.1599C852.733 80.9076 855.754 81.7487 858.184 82.6833C860.614 83.6179 862.702 85.1133 864.446 87.1695C866.253 89.1633 867.157 91.8736 867.157 95.3005C867.157 98.3536 866.222 101.002 864.353 103.245C862.546 105.488 860.116 107.201 857.063 108.385C854.01 109.507 850.676 110.067 847.063 110.067C842.14 110.067 837.903 109.133 834.352 107.264C830.863 105.394 828.277 102.715 826.595 99.2259L836.128 94.2725C837.81 98.5717 841.455 100.721 847.063 100.721C849.493 100.721 851.58 100.254 853.325 99.3194C855.069 98.3847 855.941 97.0451 855.941 95.3005C855.941 93.8052 855.131 92.7148 853.511 92.0294C851.954 91.2817 849.399 90.4717 845.848 89.5994C842.172 88.7271 839.181 87.8548 836.875 86.9825C834.57 86.1102 832.576 84.7706 830.894 82.9637C829.212 81.0945 828.37 78.6334 828.37 75.5803C828.37 72.5896 829.212 70.0038 830.894 67.8231C832.576 65.58 834.85 63.8666 837.717 62.6827C840.583 61.4989 843.729 60.907 847.156 60.907C851.206 60.907 854.82 61.7481 857.998 63.4304C861.238 65.1127 863.73 67.5115 865.474 70.6269L856.035 75.3934C854.415 71.9042 851.455 70.1596 847.156 70.1596C844.975 70.1596 843.231 70.6269 841.922 71.5615C840.614 72.4338 839.96 73.6488 839.96 75.2065Z" fill="black"/>
<path d="M801.944 60.907C804.686 60.907 807.458 61.4989 810.262 62.6827C813.128 63.8043 815.558 65.8604 817.552 68.8511C819.608 71.8419 820.636 75.8607 820.636 80.9076V108.852H809.047V80.9076C809.047 77.4184 808.05 74.9261 806.056 73.4307C804.125 71.873 801.851 71.0942 799.234 71.0942C796.617 71.0942 794.374 72.0288 792.505 73.898C790.698 75.7049 789.794 78.6334 789.794 82.6833V108.852H778.205V62.122H789.794V66.0473C791.476 64.4896 793.346 63.2435 795.402 62.3089C797.458 61.3743 799.639 60.907 801.944 60.907Z" fill="black"/>
<path d="M754.695 62.122H766.285V108.852H754.695V104.273C752.515 106.142 750.116 107.606 747.499 108.665C744.944 109.662 742.234 110.161 739.368 110.161C734.632 110.161 730.489 109.102 726.938 106.983C723.386 104.865 720.645 101.936 718.713 98.1978C716.844 94.4594 715.909 90.2537 715.909 85.5806C715.909 80.9076 716.844 76.7019 718.713 72.9634C720.645 69.225 723.386 66.2966 726.938 64.1781C730.489 61.9974 734.632 60.907 739.368 60.907C742.234 60.907 744.944 61.4366 747.499 62.4958C750.116 63.4927 752.515 64.9258 754.695 66.795V62.122ZM740.863 99.039C743.418 99.039 745.723 98.4782 747.779 97.3567C749.898 96.1728 751.549 94.5529 752.733 92.4967C753.979 90.4406 754.602 88.1041 754.602 85.4872C754.602 81.5618 753.262 78.353 750.583 75.8607C747.966 73.3684 744.726 72.1223 740.863 72.1223C736.938 72.1223 733.698 73.3996 731.143 75.9542C728.651 78.4465 727.405 81.6553 727.405 85.5806C727.405 89.506 728.651 92.7459 731.143 95.3005C733.698 97.7928 736.938 99.039 740.863 99.039Z" fill="black"/>
<path d="M700.767 54.3649C698.587 54.3649 696.873 53.773 695.627 52.5891C694.381 51.4053 693.758 49.7853 693.758 47.7292C693.758 45.6107 694.381 43.9596 695.627 42.7758C696.873 41.5919 698.587 41 700.767 41C702.948 41 704.662 41.5919 705.908 42.7758C707.154 43.9596 707.777 45.6107 707.777 47.7292C707.777 49.723 707.123 51.343 705.814 52.5891C704.568 53.773 702.886 54.3649 700.767 54.3649ZM694.879 108.853V62.1221H706.468V108.853H694.879Z" fill="black"/>
<path d="M671.274 43.4296H682.863V108.852H671.274V104.366C669.155 106.235 666.788 107.668 664.171 108.665C661.554 109.662 658.844 110.161 656.04 110.161C651.304 110.161 647.161 109.101 643.609 106.983C640.058 104.864 637.316 101.936 635.385 98.1976C633.516 94.4591 632.581 90.2534 632.581 85.5804C632.581 80.9073 633.516 76.7016 635.385 72.9632C637.316 69.2247 640.058 66.2963 643.609 64.1779C647.161 61.9971 651.304 60.9067 656.04 60.9067C658.844 60.9067 661.523 61.4363 664.077 62.4956C666.694 63.4925 669.093 64.8944 671.274 66.7013V43.4296ZM657.535 99.0387C660.09 99.0387 662.395 98.478 664.451 97.3564C666.57 96.1726 668.221 94.5526 669.405 92.4965C670.651 90.4403 671.274 88.1038 671.274 85.4869C671.274 81.5616 669.934 78.3527 667.255 75.8605C664.638 73.3682 661.398 72.122 657.535 72.122C653.61 72.122 650.37 73.3993 647.815 75.9539C645.323 78.4462 644.077 81.655 644.077 85.5804C644.077 89.5057 645.323 92.7457 647.815 95.3003C650.37 97.7926 653.61 99.0387 657.535 99.0387Z" fill="black"/>
<path d="M629.265 61.1873L628.424 72.1222C628.05 71.9976 627.395 71.9352 626.461 71.9352C622.598 71.9352 619.389 73.0568 616.834 75.2998C614.342 77.5429 613.096 80.5959 613.096 84.459V108.852H601.507V62.1219H613.096V69.9726C614.155 67.4803 615.962 65.393 618.517 63.7107C621.071 62.0284 624.155 61.1873 627.769 61.1873H629.265Z" fill="black"/>
<path d="M577.998 62.122H589.587V108.852H577.998V104.273C575.817 106.142 573.419 107.606 570.802 108.665C568.247 109.662 565.537 110.161 562.671 110.161C557.935 110.161 553.792 109.102 550.24 106.983C546.689 104.865 543.947 101.936 542.016 98.1978C540.147 94.4594 539.212 90.2537 539.212 85.5806C539.212 80.9076 540.147 76.7019 542.016 72.9634C543.947 69.225 546.689 66.2966 550.24 64.1781C553.792 61.9974 557.935 60.907 562.671 60.907C565.537 60.907 568.247 61.4366 570.802 62.4958C573.419 63.4927 575.817 64.9258 577.998 66.795V62.122ZM564.166 99.039C566.721 99.039 569.026 98.4782 571.082 97.3567C573.2 96.1728 574.852 94.5529 576.035 92.4967C577.282 90.4406 577.905 88.1041 577.905 85.4872C577.905 81.5618 576.565 78.353 573.886 75.8607C571.269 73.3684 568.029 72.1223 564.166 72.1223C560.241 72.1223 557.001 73.3996 554.446 75.9542C551.954 78.4465 550.708 81.6553 550.708 85.5806C550.708 89.506 551.954 92.7459 554.446 95.3005C557.001 97.7928 560.241 99.039 564.166 99.039Z" fill="black"/>
<path d="M519.598 62.1219H531.187V108.852H519.598V104.927C517.916 106.485 516.046 107.731 513.99 108.665C511.934 109.6 509.753 110.067 507.448 110.067C504.707 110.067 501.903 109.507 499.037 108.385C496.233 107.201 493.803 105.114 491.747 102.123C489.753 99.1324 488.756 95.1136 488.756 90.0667V62.1219H500.345V90.0667C500.345 93.5559 501.311 96.0794 503.242 97.637C505.236 99.1324 507.541 99.8801 510.158 99.8801C512.775 99.8801 514.987 98.9766 516.794 97.1697C518.663 95.3005 519.598 92.3409 519.598 88.291V62.1219Z" fill="black"/>
<path d="M468.475 62.122H480.064V106.516C480.064 110.94 478.943 114.834 476.7 118.198C474.519 121.563 471.466 124.149 467.54 125.956C463.615 127.825 459.222 128.759 454.362 128.759C448.942 128.759 444.019 127.7 439.596 125.582C435.172 123.526 432.056 120.815 430.25 117.451L440.156 111.75C441.091 113.557 442.836 115.052 445.39 116.236C447.945 117.482 451.029 118.105 454.643 118.105C458.63 118.105 461.933 117.015 464.55 114.834C467.167 112.715 468.475 109.943 468.475 106.516V104.366C466.357 106.235 463.989 107.669 461.372 108.665C458.755 109.662 456.045 110.161 453.241 110.161C448.506 110.161 444.362 109.102 440.811 106.983C437.259 104.865 434.518 101.936 432.586 98.1978C430.717 94.4594 429.782 90.2537 429.782 85.5806C429.782 80.9076 430.717 76.7019 432.586 72.9634C434.518 69.225 437.259 66.2966 440.811 64.1781C444.362 61.9974 448.506 60.907 453.241 60.907C456.045 60.907 458.724 61.4366 461.279 62.4958C463.895 63.4927 466.294 64.8946 468.475 66.7015V62.122ZM454.736 99.039C457.291 99.039 459.596 98.4782 461.652 97.3567C463.771 96.1728 465.422 94.5529 466.606 92.4967C467.852 90.4406 468.475 88.1041 468.475 85.4872C468.475 81.5618 467.135 78.353 464.456 75.8607C461.839 73.3684 458.599 72.1223 454.736 72.1223C450.811 72.1223 447.571 73.3996 445.016 75.9542C442.524 78.4465 441.278 81.6553 441.278 85.5806C441.278 89.506 442.524 92.7459 445.016 95.3005C447.571 97.7928 450.811 99.039 454.736 99.039Z" fill="black"/>
<path d="M420.501 108.852H409.005V81.1877C409.005 77.6985 408.008 75.2062 406.014 73.7109C404.083 72.1532 401.777 71.3743 399.098 71.3743C396.98 71.3743 395.048 72.0286 393.304 73.337C391.621 74.6455 390.531 76.7328 390.032 79.5989V108.852H378.443V43.4296H390.032V66.0471C391.59 64.5517 393.366 63.3679 395.36 62.4956C397.416 61.6233 399.597 61.1871 401.902 61.1871C404.644 61.1871 407.416 61.779 410.22 62.9629C413.024 64.0844 415.423 66.1094 417.416 69.0378C419.473 71.9663 420.501 75.9228 420.501 80.9073V108.852Z" fill="black"/>
<path d="M359.655 92.8707C359.655 94.9891 360.153 96.4533 361.15 97.2633C362.147 98.0733 363.736 98.4783 365.917 98.4783C367.225 98.4783 368.658 98.3849 370.216 98.1979V108.852C367.287 109.164 364.857 109.32 362.926 109.32C357.941 109.32 354.203 108.198 351.711 105.955C349.281 103.65 348.066 99.5375 348.066 93.6184V72.4962H339.28V62.1221H348.066V50.6264L359.655 46.701V62.1221H370.029V72.4962H359.655V92.8707Z" fill="black"/>
<path d="M333.275 61.1873L332.434 72.1222C332.06 71.9976 331.406 71.9352 330.472 71.9352C326.609 71.9352 323.4 73.0568 320.845 75.2998C318.353 77.5429 317.107 80.5959 317.107 84.459V108.852H305.518V62.1219H317.107V69.9726C318.166 67.4803 319.973 65.393 322.527 63.7107C325.082 62.0284 328.166 61.1873 331.78 61.1873H333.275Z" fill="black"/>
<path d="M282.007 62.122H293.596V108.852H282.007V104.273C279.826 106.142 277.427 107.606 274.81 108.665C272.256 109.662 269.545 110.161 266.679 110.161C261.944 110.161 257.801 109.102 254.249 106.983C250.698 104.865 247.956 101.936 246.025 98.1978C244.155 94.4594 243.221 90.2537 243.221 85.5806C243.221 80.9076 244.155 76.7019 246.025 72.9634C247.956 69.225 250.698 66.2966 254.249 64.1781C257.801 61.9974 261.944 60.907 266.679 60.907C269.545 60.907 272.256 61.4366 274.81 62.4958C277.427 63.4927 279.826 64.9258 282.007 66.795V62.122ZM268.175 99.039C270.729 99.039 273.035 98.4782 275.091 97.3567C277.209 96.1728 278.86 94.5529 280.044 92.4967C281.29 90.4406 281.913 88.1041 281.913 85.4872C281.913 81.5618 280.574 78.353 277.895 75.8607C275.278 73.3684 272.038 72.1223 268.175 72.1223C264.249 72.1223 261.009 73.3996 258.455 75.9542C255.963 78.4465 254.716 81.6553 254.716 85.5806C254.716 89.506 255.963 92.7459 258.455 95.3005C261.009 97.7928 264.249 99.039 268.175 99.039Z" fill="black"/>
<path d="M214.58 60.907C219.066 60.907 223.085 62.0285 226.637 64.2716C230.25 66.4523 233.054 69.4119 235.048 73.1503C237.042 76.8888 238.039 81.0322 238.039 85.5806C238.039 87.076 237.914 88.4468 237.665 89.6929H201.589C202.524 92.9952 204.175 95.5809 206.543 97.4501C208.91 99.257 211.932 100.16 215.608 100.16C217.851 100.16 220.001 99.662 222.057 98.6651C224.175 97.6682 225.764 96.3909 226.824 94.8332L235.702 100.067C233.522 103.307 230.687 105.799 227.197 107.544C223.77 109.226 219.814 110.067 215.328 110.067C210.343 110.067 205.919 109.008 202.056 106.89C198.193 104.771 195.203 101.843 193.084 98.1044C191.028 94.3659 190 90.1602 190 85.4872C190 80.8764 191.028 76.7019 193.084 72.9634C195.203 69.225 198.131 66.2966 201.87 64.1781C205.608 61.9974 209.845 60.907 214.58 60.907ZM227.197 80.6272C226.699 77.6365 225.297 75.2999 222.992 73.6176C220.749 71.873 217.914 71.0007 214.487 71.0007C212.119 71.0007 209.938 71.4369 207.944 72.3092C206.013 73.1815 204.455 74.3653 203.271 75.8607C202.088 77.3561 201.465 78.9449 201.402 80.6272H227.197Z" fill="black"/>
<path d="M159.174 70.4172C158.967 68.2537 157.254 66.5411 155.09 66.3341C153.879 66.2184 125.21 63.6892 108.516 80.3835C104.896 84.0033 102.181 88.1862 100.149 92.5299C96.8004 78.8216 90.8464 67.4489 82.6711 59.2737C72.5953 49.1979 57.6614 42.4943 39.4849 39.888C25.9603 37.9484 15.4289 38.9173 14.9873 38.96C12.8238 39.1669 11.1111 40.8795 10.9042 43.0431C10.8618 43.4847 9.89293 54.0158 11.8322 67.5405C14.4385 85.7172 21.1418 100.651 31.2179 110.726C41.2937 120.802 56.2274 127.506 74.4042 130.112C81.098 131.072 87.0573 131.32 91.4241 131.32C95.3806 131.319 98.0256 131.117 98.7262 131.056C99.3252 131.107 101.148 131.242 103.802 131.242C113.087 131.242 132.52 129.596 145.124 116.991C161.818 100.297 159.289 71.6298 159.174 70.4172Z" fill="#30CB65"/>
<path d="M131.437 95.4802C129.667 93.7098 126.795 93.7098 125.023 95.4802L100.136 120.369L61.5614 81.7932C59.7906 80.0229 56.9191 80.0229 55.1477 81.7932C53.3764 83.5643 53.3767 86.4357 55.1477 88.2074L96.674 129.733C97.5592 130.618 98.72 131.061 99.8801 131.061C99.9651 131.061 100.051 131.055 100.136 131.049C100.221 131.054 100.306 131.061 100.391 131.061C101.552 131.061 102.713 130.618 103.598 129.733L131.437 101.894C133.209 100.123 133.208 97.2513 131.437 95.4802Z" fill="#97E5B2"/>
<path d="M155.09 66.3339C153.878 66.2183 125.21 63.6889 108.516 80.3834C104.895 84.0032 102.181 88.1862 100.148 92.5298C100.103 92.3492 100.057 92.1705 100.012 91.9906V131.144C100.921 131.194 102.21 131.242 103.802 131.242C113.086 131.242 132.518 129.596 145.123 116.991C161.817 100.297 159.289 71.6291 159.172 70.4165C158.966 68.2537 157.253 66.5404 155.09 66.3339Z" fill="#97E5B2"/>
<path d="M125.025 95.481L100.137 120.369L100.013 120.245V131.055C100.055 131.053 100.096 131.051 100.137 131.049C100.222 131.054 100.308 131.061 100.393 131.061C101.553 131.061 102.713 130.619 103.599 129.733L131.437 101.894C133.209 100.123 133.209 97.252 131.437 95.4803C129.667 93.7099 126.795 93.7099 125.025 95.481Z" fill="#5DC378"/>
</svg>